<?xml version="1.0" standalone="no"?>
<!DOCTYPE svg PUBLIC "-//W3C//DTD SVG 20010904//EN"
 "http://www.w3.org/TR/2001/REC-SVG-20010904/DTD/svg10.dtd">
<svg version="1.0" xmlns="http://www.w3.org/2000/svg"
 width="180.000000pt" height="180.000000pt" viewBox="0 0 180.000000 180.000000"
 preserveAspectRatio="xMidYMid meet">
<metadata>
Created by potrace 1.14, written by Peter Selinger 2001-2017
</metadata>
<g transform="translate(0.000000,180.000000) scale(0.100000,-0.100000)"
fill="#000000" stroke="none">
<path d="M789 1796 c-2 -2 -24 -7 -49 -11 -72 -11 -212 -61 -281 -101 -211
-122 -354 -304 -425 -541 -24 -78 -27 -105 -27 -233 -1 -161 12 -230 64 -356
107 -257 330 -451 604 -525 115 -32 335 -32 450 0 335 91 588 358 661 700 15
71 12 268 -5 351 -32 148 -112 308 -212 423 -97 112 -289 228 -444 268 -73 19
-323 37 -336 25z"/>
</g>
</svg>
